<svg width="76" height="20" viewBox="0 0 76 20" fill="none" xmlns="http://www.w3.org/2000/svg">
    <path opacity="0.2" fill-rule="evenodd" clip-rule="evenodd"
        d="M6.10422 4.19355L7.64268 12.1588L9.70223 1.88586C9.95037 0.628612 10.6203 0 11.7122 0C12.8205 0 13.4905 0.570714 13.7221 1.71216V1.68734C13.9206 2.74608 14.0984 3.69727 14.2556 4.54094C14.4127 5.38462 14.5699 6.20761 14.727 7.00993C14.8842 7.81225 15.0414 8.63523 15.1985 9.47891C15.3557 10.3226 15.5335 11.2738 15.732 12.3325L17.3201 4.56576C17.469 3.87096 17.5434 3.35815 17.5434 3.0273C17.5434 2.59719 17.3449 2.38213 16.9479 2.38213C16.8652 2.38213 16.7783 2.38627 16.6873 2.39454C16.5964 2.40281 16.493 2.40695 16.3772 2.40695C16.2614 2.42349 16.1414 2.43176 16.0174 2.43176H15.7072C14.7477 2.43176 14.268 2.05129 14.268 1.29032C14.268 0.545902 14.7394 0.173697 15.6824 0.173697C15.8313 0.173697 15.9719 0.177833 16.1042 0.186104C16.2366 0.194376 16.3689 0.206782 16.5012 0.223325C17.1629 0.306038 17.7047 0.368073 18.1266 0.409429C18.5484 0.450786 18.8503 0.471464 19.0323 0.471464C19.2969 0.471464 19.7436 0.421837 20.3722 0.322581C21.0174 0.223325 21.5136 0.173697 21.861 0.173697C22.7213 0.173697 23.1514 0.562444 23.1514 1.33995C23.1514 2.06783 22.7295 2.43176 21.8859 2.43176H21.6749C21.584 2.43176 21.4971 2.42349 21.4144 2.40695C21.3317 2.39041 21.2572 2.378 21.1911 2.36973C21.1249 2.36146 21.0753 2.35732 21.0422 2.35732C20.8602 2.35732 20.7196 2.44003 20.6203 2.60546C20.5873 2.70472 20.5335 2.88668 20.4591 3.15136C20.3846 3.41605 20.2895 3.76344 20.1737 4.19355L17.5186 15.5583C17.2374 16.6005 16.6088 17.1216 15.6328 17.1216C14.5906 17.1216 13.9371 16.5012 13.6725 15.2605L11.6625 4.71464L9.42928 15.5831C9.31348 16.0629 9.11084 16.4392 8.82134 16.7122C8.53184 16.9851 8.14723 17.1216 7.66749 17.1216C6.70802 17.1216 6.09595 16.6005 5.83127 15.5583L3.00248 3.69727C2.88668 3.25062 2.74607 2.92391 2.58065 2.71712C2.41522 2.51034 2.17535 2.40695 1.86104 2.40695H1.68734L1.16625 2.45658C0.388747 2.45658 0 2.08437 0 1.33995C0 0.562444 0.413561 0.173697 1.24069 0.173697C1.50538 0.173697 1.7866 0.198511 2.08437 0.248139C2.92804 0.397023 3.73862 0.471464 4.51613 0.471464C4.6981 0.471464 5 0.450786 5.42184 0.409429C5.84367 0.368073 6.39371 0.306038 7.07196 0.223325C7.2043 0.206782 7.32837 0.194376 7.44417 0.186104C7.55997 0.177833 7.68404 0.173697 7.81638 0.173697C8.66005 0.173697 9.08189 0.545902 9.08189 1.29032C9.08189 2.08437 8.59388 2.48139 7.61787 2.48139C7.53515 2.48139 7.43176 2.47725 7.30769 2.46898C7.18362 2.46071 7.05542 2.4483 6.92308 2.43176C6.79074 2.41522 6.66667 2.40281 6.55087 2.39454C6.43507 2.38627 6.36063 2.38213 6.32754 2.38213C6.02978 2.38213 5.88089 2.53929 5.88089 2.8536C5.88089 3.00248 5.90571 3.20099 5.95534 3.44913L6.10422 4.19355ZM25.0289 4.44169C25.5749 4.44169 25.8974 4.65674 25.9967 5.08685C26.8073 4.37551 27.775 4.01985 28.8999 4.01985C29.512 4.01985 30.0662 4.1067 30.5624 4.2804C31.0587 4.4541 31.4888 4.70223 31.8528 5.02481C32.2167 5.3474 32.4979 5.73201 32.6964 6.17866C32.895 6.62531 32.9942 7.12159 32.9942 7.66749C32.9942 8.46154 32.7874 9.10256 32.3739 9.59057C31.9603 10.0786 31.4061 10.3226 30.7113 10.3226C30.2316 10.3226 29.8304 10.182 29.5079 9.90074C29.1853 9.61952 29.024 9.27213 29.024 8.85856C29.024 8.52771 29.1605 8.22994 29.4334 7.96526C29.7064 7.70058 30.0165 7.56824 30.3639 7.56824C30.397 7.56824 30.3929 7.55997 30.3515 7.54342L30.4136 7.56824V7.44417C30.4136 7.08023 30.2523 6.77419 29.9297 6.52605C29.6071 6.27791 29.206 6.15385 28.7262 6.15385C27.684 6.15385 26.9892 6.63358 26.6419 7.59305C26.4103 8.25476 26.2945 9.23076 26.2945 10.5211V13.2258C26.2945 13.507 26.3027 13.6807 26.3193 13.7469C26.402 14.4748 26.5095 14.8387 26.6419 14.8387C26.7411 14.8387 26.8321 14.8346 26.9148 14.8263C26.9975 14.818 27.0802 14.8056 27.1629 14.7891C27.378 14.7229 27.5682 14.6898 27.7337 14.6898C28.4946 14.6898 28.8751 15.0455 28.8751 15.7568C28.8751 16.5343 28.4202 16.9231 27.5103 16.9231H27.4359C27.3036 16.9231 27.1423 16.9148 26.952 16.8983C26.7618 16.8817 26.5426 16.8569 26.2945 16.8238C25.8147 16.7742 25.4756 16.7494 25.2771 16.7494C24.9628 16.7494 24.6898 16.7535 24.4582 16.7618C24.2266 16.7701 24.0199 16.7825 23.8379 16.799L22.4979 16.9231C21.5881 16.9231 21.1332 16.5343 21.1332 15.7568C21.1332 15.062 21.5633 14.7146 22.4235 14.7146C22.5062 14.7146 22.5765 14.7105 22.6344 14.7022C22.6923 14.694 22.7626 14.7064 22.8453 14.7395L23.1431 14.8139H23.3416C23.3581 14.8304 23.383 14.8387 23.416 14.8387H23.4409C23.5897 14.8387 23.6725 14.5906 23.689 14.0943C23.689 13.8958 23.6973 13.6973 23.7138 13.4988C23.7304 13.3002 23.7386 13.1017 23.7386 12.9032L23.6642 7.56824C23.6311 6.95616 23.5484 6.60877 23.416 6.52605C23.383 6.52605 23.3002 6.53433 23.1679 6.55087C23.0356 6.56741 22.9446 6.57568 22.895 6.57568H22.9446C22.7461 6.62531 22.5393 6.65012 22.3242 6.65012C21.5467 6.65012 21.158 6.28619 21.158 5.55831C21.158 4.79735 21.6212 4.41687 22.5476 4.41687C22.5806 4.43342 22.6799 4.44582 22.8453 4.45409C23.0108 4.46237 23.1596 4.47477 23.292 4.49132C23.4243 4.50786 23.5525 4.52026 23.6766 4.52854C23.8007 4.53681 23.8958 4.54094 23.962 4.54094H24.0984C24.1563 4.54094 24.2266 4.53267 24.3093 4.51613C24.3424 4.51613 24.3714 4.51199 24.3962 4.50372C24.421 4.49545 24.4582 4.49132 24.5079 4.49132C24.6733 4.45823 24.847 4.44169 25.0289 4.44169ZM38.4285 8.69727V13.6352C38.4285 13.8586 38.4367 14.0116 38.4533 14.0943C38.5029 14.5906 38.5773 14.8387 38.6766 14.8387C38.66 14.8387 38.7014 14.8304 38.8007 14.8139C38.8999 14.7974 39.024 14.7725 39.1729 14.7395L39.1481 14.7643C39.1977 14.7477 39.2597 14.7312 39.3342 14.7146C39.4086 14.6981 39.5037 14.6898 39.6195 14.6898C40.4797 14.6898 40.9098 15.0538 40.9098 15.7816C40.9098 16.1125 40.7734 16.3854 40.5004 16.6005C40.2275 16.8155 39.8842 16.9231 39.4706 16.9231C39.3383 16.9231 39.1729 16.9148 38.9744 16.8983C38.7758 16.8817 38.5443 16.8569 38.2796 16.8238C38.0314 16.7907 37.8164 16.7618 37.6344 16.737C37.4524 16.7122 37.3036 16.6998 37.1878 16.6998C37.0058 16.6998 36.8031 16.708 36.5798 16.7246C36.3565 16.7411 36.1208 16.7659 35.8726 16.799C35.5749 16.8321 35.3226 16.861 35.1158 16.8859C34.909 16.9107 34.7395 16.9231 34.6071 16.9231C33.7138 16.9231 33.2672 16.5426 33.2672 15.7816C33.2672 15.0538 33.6725 14.6898 34.483 14.6898C34.5161 14.6898 34.6112 14.6981 34.7684 14.7146C34.9256 14.7312 35.0538 14.7477 35.153 14.7643C35.2688 14.7974 35.3598 14.8139 35.426 14.8139H35.5749C35.7072 14.8139 35.7982 14.4169 35.8478 13.6228V7.64268C35.7982 6.86517 35.6989 6.47643 35.55 6.47643C35.517 6.47643 35.4591 6.4847 35.3763 6.50124C35.2936 6.51778 35.1944 6.5426 35.0786 6.57568C34.9959 6.60877 34.9007 6.62945 34.7932 6.63772C34.6857 6.64599 34.5988 6.65012 34.5327 6.65012C33.689 6.65012 33.2672 6.28619 33.2672 5.55831C33.2672 4.81389 33.7469 4.44169 34.7064 4.44169H35.153C35.2688 4.44169 35.3515 4.44996 35.4012 4.4665C35.6328 4.49959 35.8271 4.5244 35.9843 4.54094C36.1414 4.55749 36.2448 4.56576 36.2945 4.56576C36.3275 4.56576 36.3979 4.56162 36.5054 4.55335C36.6129 4.54508 36.7163 4.53267 36.8155 4.51613L37.4607 4.44169C38.172 4.44169 38.5277 4.85525 38.5277 5.68238V6.02978C38.5112 6.09595 38.5029 6.14971 38.5029 6.19107V6.27792C38.4864 6.32754 38.4781 6.55914 38.4781 6.9727C38.4781 7.0885 38.4739 7.20844 38.4657 7.33251C38.4574 7.45658 38.4533 7.58478 38.4533 7.71712C38.4367 8.04797 38.4285 8.37469 38.4285 8.69727ZM36.7907 3.84615C36.311 3.84615 35.9057 3.689 35.5749 3.37469C35.244 3.06038 35.0786 2.67163 35.0786 2.20844C35.0786 1.74524 35.244 1.36063 35.5749 1.05459C35.9057 0.748551 36.311 0.595533 36.7907 0.595533C37.2705 0.595533 37.6799 0.748551 38.019 1.05459C38.3582 1.36063 38.5277 1.74524 38.5277 2.20844C38.5277 2.67163 38.3582 3.06038 38.019 3.37469C37.6799 3.689 37.2705 3.84615 36.7907 3.84615ZM46.708 11.737C46.7411 10.8768 47.1629 10.4466 47.9735 10.4466C48.7841 10.4466 49.1894 10.9181 49.1894 11.861C49.1894 12.7543 49.1232 13.5112 48.9909 14.1315C48.8586 14.7519 48.6766 15.2523 48.445 15.6328C47.7833 16.6253 46.6998 17.1216 45.1944 17.1216C44.4996 17.1216 43.8999 17.0058 43.3954 16.7742C42.8908 16.5426 42.4897 16.2117 42.1919 15.7816C41.7452 15.1034 41.5219 14.0529 41.5219 12.6303V6.99752C41.5219 6.88172 41.5054 6.82382 41.4723 6.82382H40.7279C40.3639 6.82382 40.062 6.71216 39.8222 6.48883C39.5823 6.26551 39.4624 5.98842 39.4624 5.65757C39.4624 5.3598 39.5823 5.09099 39.8222 4.85112C40.062 4.61125 40.3391 4.49131 40.6534 4.49131H41.5715V1.9603C41.5715 1.13316 42.0099 0.719603 42.8867 0.719603C43.7138 0.719603 44.1274 1.13316 44.1274 1.9603V4.4665C44.1274 4.48304 44.1356 4.49131 44.1522 4.49131H46.708C47.5682 4.49131 47.9983 4.87179 47.9983 5.63275C47.9983 6.4268 47.5517 6.82382 46.6584 6.82382H44.0529C44.1026 6.85691 44.1274 6.9148 44.1274 6.99752V12.7792C44.1274 14.2018 44.5327 14.9132 45.3433 14.9132C46.22 14.9132 46.6584 14.359 46.6584 13.2506L46.708 11.737ZM61.646 9.57816C61.646 9.95865 61.6377 10.2564 61.6212 10.4715C61.6046 10.6865 61.555 10.8519 61.4723 10.9677C61.3896 11.0835 61.2696 11.1538 61.1125 11.1787C60.9553 11.2035 60.7361 11.2159 60.4549 11.2159H52.9859C52.9198 11.2159 52.8867 11.2242 52.8867 11.2407C52.8867 12.3491 53.2093 13.2506 53.8544 13.9454C54.4665 14.6567 55.2357 15.0124 56.1621 15.0124C56.7742 15.0124 57.3284 14.847 57.8246 14.5161C58.3209 14.1853 58.6435 13.7634 58.7924 13.2506L59.0157 12.5806C59.115 12.3325 59.2597 12.134 59.45 11.9851C59.6402 11.8362 59.8759 11.7618 60.1572 11.7618C61.0174 11.7618 61.4475 12.1753 61.4475 13.0025C61.4475 14.1274 60.8685 15.1199 59.7105 15.9801C58.6021 16.8073 57.3532 17.2208 55.9636 17.2208C54.177 17.2208 52.7626 16.6336 51.7204 15.4591C50.6948 14.2845 50.182 12.7295 50.182 10.794C50.182 8.84201 50.7279 7.22085 51.8197 5.93052C52.928 4.65673 54.3755 4.01985 56.1621 4.01985C56.9893 4.01985 57.7254 4.15219 58.3706 4.41687C59.0157 4.68156 59.5947 5.0703 60.1075 5.58313C61.1332 6.6584 61.646 7.99007 61.646 9.57816ZM58.9413 8.98263C58.9413 8.23821 58.6683 7.59305 58.1224 7.04715C57.5434 6.50124 56.8983 6.22829 56.1869 6.22829C55.4591 6.22829 54.7477 6.52605 54.0529 7.12159C53.4243 7.70058 53.11 8.32092 53.11 8.98263H58.9413ZM62.316 20V17.7419H75.0207V20H62.316Z"
        fill="#2F2E2B" />
</svg>
