<svg width="26" height="26" viewBox="0 0 26 26" fill="none" xmlns="http://www.w3.org/2000/svg">
    <path fill-rule="evenodd" clip-rule="evenodd"
        d="M22.375 13C22.375 13.425 22.3375 13.825 22.2875 14.225L24.925 16.2875C25.1625 16.475 25.225 16.8125 25.075 17.0875L22.575 21.4125C22.425 21.6875 22.1 21.8 21.8125 21.6875L18.7 20.4375C18.05 20.925 17.35 21.35 16.5875 21.6625L16.1125 24.975C16.075 25.275 15.8125 25.5 15.5 25.5H10.5C10.1875 25.5 9.92504 25.275 9.88754 24.975L9.41254 21.6625C8.65004 21.35 7.95004 20.9375 7.30004 20.4375L4.18754 21.6875C3.91254 21.7875 3.57504 21.6875 3.42504 21.4125L0.925043 17.0875C0.775043 16.8125 0.837543 16.475 1.07504 16.2875L3.71254 14.225C3.66254 13.825 3.62504 13.4125 3.62504 13C3.62504 12.5875 3.66254 12.175 3.71254 11.775L1.07504 9.7125C0.837543 9.525 0.762543 9.1875 0.925043 8.9125L3.42504 4.5875C3.57504 4.3125 3.90004 4.2 4.18754 4.3125L7.30004 5.5625C7.95004 5.075 8.65004 4.65 9.41254 4.3375L9.88754 1.025C9.92504 0.725 10.1875 0.5 10.5 0.5H15.5C15.8125 0.5 16.075 0.725 16.1125 1.025L16.5875 4.3375C17.35 4.65 18.05 5.0625 18.7 5.5625L21.8125 4.3125C22.0875 4.2125 22.425 4.3125 22.575 4.5875L25.075 8.9125C25.225 9.1875 25.1625 9.525 24.925 9.7125L22.2875 11.775C22.3375 12.175 22.375 12.575 22.375 13ZM8.62504 13C8.62504 15.4125 10.5875 17.375 13 17.375C15.4125 17.375 17.375 15.4125 17.375 13C17.375 10.5875 15.4125 8.625 13 8.625C10.5875 8.625 8.62504 10.5875 8.62504 13Z"
        fill="white" />
</svg>
